<svg xmlns="http://www.w3.org/2000/svg" xmlns:xlink="http://www.w3.org/1999/xlink" viewBox="0 0 1072.69 1022.98"><defs><style>.cls-1,.cls-2,.cls-3,.cls-4,.cls-5{fill:none;stroke-miterlimit:10;}.cls-1{stroke:url(#linear-gradient);}.cls-2{stroke:url(#linear-gradient-2);}.cls-3{stroke:url(#linear-gradient-3);}.cls-4{stroke:url(#linear-gradient-4);}.cls-5{stroke:url(#linear-gradient-5);}.cls-6{fill:url(#linear-gradient-6);}</style><linearGradient id="linear-gradient" x1="698.67" y1="25.33" x2="438.16" y2="966.2" gradientUnits="userSpaceOnUse"><stop offset="0" stop-color="#43445c"/><stop offset="1" stop-color="#a2706d"/><stop offset="1"/></linearGradient><linearGradient id="linear-gradient-2" x1="684.67" y1="21.33" x2="424.16" y2="962.2" xlink:href="#linear-gradient"/><linearGradient id="linear-gradient-3" x1="664.67" y1="67.33" x2="404.16" y2="1008.2" xlink:href="#linear-gradient"/><linearGradient id="linear-gradient-4" x1="724.67" y1="57.33" x2="464.16" y2="998.2" xlink:href="#linear-gradient"/><linearGradient id="linear-gradient-5" x1="644.67" y1="47.33" x2="384.16" y2="988.2" xlink:href="#linear-gradient"/><linearGradient id="linear-gradient-6" x1="601.04" y1="156.4" x2="427.03" y2="1119.5" xlink:href="#linear-gradient"/></defs><title>Asset 1</title><g id="Layer_2" data-name="Layer 2"><g id="Layer_2-2" data-name="Layer 2"><path class="cls-1" d="M1046,482.69c3.33,155-33.82,269.17-116,360-95,105-300,144-395,137-251.44-18.53-450.06-183.16-474-322-25-145,28-226,62-364,29.19-118.46,101.63-209,259-262,101-34,323-64,476,93C944.76,213.74,1042,296.69,1046,482.69Z"/><path class="cls-2" d="M1032,478.69c3.33,155-33.82,269.17-116,360-95,105-300,144-395,137-251.44-18.53-450.06-183.16-474-322-25-145,28-226,62-364,29.19-118.46,101.63-209,259-262,101-34,323-64,476,93C930.76,209.74,1028,292.69,1032,478.69Z"/><path class="cls-3" d="M1012,524.69c3.33,155-33.82,269.17-116,360-95,105-300,144-395,137-251.44-18.53-450.06-183.16-474-322-25-145,28-226,62-364,29.19-118.46,101.63-209,259-262,101-34,323-64,476,93C910.76,255.74,1008,338.69,1012,524.69Z"/><path class="cls-4" d="M1072,514.69c3.33,155-33.82,269.17-116,360-95,105-300,144-395,137-251.44-18.53-450.06-183.16-474-322-25-145,28-226,62-364,29.19-118.46,101.63-209,259-262,101-34,323-64,476,93C970.76,245.74,1068,328.69,1072,514.69Z"/><path class="cls-5" d="M992,504.69c3.33,155-33.82,269.17-116,360-95,105-300,144-395,137C229.55,983.16,30.92,818.53,7,679.69c-25-145,28-226,62-364,29.19-118.46,101.63-209,259-262,101-34,323-64,476,93C890.76,235.74,988,318.69,992,504.69Z"/><path class="cls-6" d="M1022,494.69c3.33,155-33.82,269.17-116,360-95,105-300,144-395,137-251.44-18.53-450.06-183.16-474-322-25-145,28-226,62-364,29.19-118.46,101.63-209,259-262,101-34,323-64,476,93C920.76,225.74,1018,308.69,1022,494.69Z"/></g></g></svg>