<svg xmlns="http://www.w3.org/2000/svg" viewBox="0 0 32 32"><defs><style>.cls-1{fill:#43445c;}</style></defs><title>Artboard 2 copy</title><g id="Layer_1" data-name="Layer 1"><path class="cls-1" d="M12.91,14.9s3-.24,3-3.94-2.48-5.51-5.62-5.51H0V26.14H10.33s6.3.21,6.3-6.1C16.63,20,16.9,14.9,12.91,14.9ZM4.55,9.13h5.78s1.4,0,1.4,2.15S10.9,13.75,10,13.75H4.55ZM10,22.47H4.55V16.94h5.78s2.09,0,2.09,2.84C12.42,22.2,10.86,22.45,10,22.47ZM25,10.72c-7.63,0-7.63,7.94-7.63,7.94s-.52,7.91,7.63,7.91c0,0,6.79.41,6.79-5.5H28.34s.11,2.23-3.18,2.23a3.27,3.27,0,0,1-3.49-3.6H31.95S33.07,10.72,25,10.72Zm3.11,6.22H21.63s.43-3.19,3.49-3.19S28.14,16.94,28.14,16.94ZM29,6.68H20.77V9.22H29V6.68Z"/></g></svg>