<svg xmlns="http://www.w3.org/2000/svg" viewBox="0 0 32 32"><defs><style>.cls-1{fill:#43445c;}</style></defs><title>Artboard 2 copy</title><g id="Layer_1" data-name="Layer 1"><path class="cls-1" d="M16,0A16,16,0,1,0,32,16,16,16,0,0,0,16,0Zm9.5,25.5a13.4,13.4,0,0,1-4.27,2.88q-.61.26-1.24.45v-2.4a3.14,3.14,0,0,0-1.3-2.78,14.08,14.08,0,0,0,1.49-.22A11.27,11.27,0,0,0,21.63,23,7.16,7.16,0,0,0,23,22.4a5.69,5.69,0,0,0,1.16-1,5.6,5.6,0,0,0,.93-1.33,7.31,7.31,0,0,0,.59-1.78A11.15,11.15,0,0,0,25.88,16a5.85,5.85,0,0,0-1.58-4.12,5.46,5.46,0,0,0-.16-4.08l-.39,0a3.86,3.86,0,0,0-1.46.34,11.38,11.38,0,0,0-2.37,1.28,14.38,14.38,0,0,0-3.86-.52,14.09,14.09,0,0,0-3.84.52,13.47,13.47,0,0,0-1.57-.93A8.11,8.11,0,0,0,9.47,8a4.1,4.1,0,0,0-.83-.16,2.93,2.93,0,0,0-.49,0L8,7.84a5.45,5.45,0,0,0-.16,4.08A5.85,5.85,0,0,0,6.26,16a11.08,11.08,0,0,0,.22,2.29,7.26,7.26,0,0,0,.59,1.78A5.57,5.57,0,0,0,8,21.45a5.64,5.64,0,0,0,1.16,1,7.11,7.11,0,0,0,1.36.63,11.22,11.22,0,0,0,1.44.41,14,14,0,0,0,1.49.22,3.13,3.13,0,0,0-1.28,2.78v2.44A13.46,13.46,0,1,1,25.5,25.5Z"/></g></svg>