<svg xmlns="http://www.w3.org/2000/svg" viewBox="0 0 32 32"><defs><style>.cls-1{fill:#43445c;}</style></defs><title>Artboard 2 copy</title><g id="Layer_1" data-name="Layer 1"><path class="cls-1" d="M24.47,16A8.47,8.47,0,1,1,7.69,14.37H2V25.62A4.38,4.38,0,0,0,6.38,30H25.62A4.38,4.38,0,0,0,30,25.62V14.37H24.31A8.51,8.51,0,0,1,24.47,16ZM25.62,2H6.38A4.38,4.38,0,0,0,2,6.38v4.74H9.09a8.46,8.46,0,0,1,13.82,0H30V6.38A4.38,4.38,0,0,0,25.62,2Zm2.14,5.4a.78.78,0,0,1-.78.78H24.64a.78.78,0,0,1-.78-.78V5.06a.78.78,0,0,1,.78-.78H27a.78.78,0,0,1,.78.78ZM21.21,16A5.21,5.21,0,1,0,16,21.21,5.21,5.21,0,0,0,21.21,16Z"/></g></svg>