<svg xmlns="http://www.w3.org/2000/svg" viewBox="0 0 32 32"><defs><style>.cls-1{fill:#43445c;}</style></defs><title>Artboard 2</title><g id="Layer_1" data-name="Layer 1"><path class="cls-1" d="M32,6.74a13.13,13.13,0,0,1-3.77,1,6.59,6.59,0,0,0,2.89-3.63,13.16,13.16,0,0,1-4.17,1.59,6.57,6.57,0,0,0-11.19,6A18.64,18.64,0,0,1,2.23,4.86a6.57,6.57,0,0,0,2,8.77,6.53,6.53,0,0,1-3-.82s0,.06,0,.08a6.57,6.57,0,0,0,5.27,6.44,6.58,6.58,0,0,1-3,.11A6.57,6.57,0,0,0,9.72,24a13.17,13.17,0,0,1-8.15,2.81A13.17,13.17,0,0,1,0,26.72a18.58,18.58,0,0,0,10.06,3c12.08,0,18.68-10,18.68-18.68q0-.43,0-.85A13.33,13.33,0,0,0,32,6.74Z"/></g></svg>