<?xml version="1.0" encoding="utf-8"?>
<!-- Generator: Adobe Illustrator 21.0.2, SVG Export Plug-In . SVG Version: 6.00 Build 0)  -->
<svg version="1.1" id="Layer_1" xmlns="http://www.w3.org/2000/svg" xmlns:xlink="http://www.w3.org/1999/xlink" x="0px" y="0px"
	 viewBox="0 0 409.1 417.1" enable-background="new 0 0 409.1 417.1" xml:space="preserve">
<path fill="#FC737A" d="M300.4,45.7c-12.9,17.9,30.4,39.1,27.4,50.1c-4.4,15.9-25.2,19.2-39.9,17.8c-26.7-2.6-43.2-15.4-49.4-27.8
	s-62.3-47.1-24.5-73.5C259-19.3,321.2,16.9,300.4,45.7z"/>
<path fill="#FC737A" d="M60.4,365.1c-6.2-21.2-49.5,0-56.3-9.1c-9.9-13.3,0.3-31.6,10.5-42.4c18.4-19.5,38.7-24.7,52.3-22
	s75.4-20.3,73.1,25.8C137.1,372.3,70.3,399.2,60.4,365.1z"/>
<circle fill="#FFFFFF" stroke="#FC737A" stroke-miterlimit="10" cx="218.3" cy="226.3" r="190.8"/>
<g>
	<defs>
		<circle id="SVGID_1_" cx="218.3" cy="226.3" r="190.8"/>
	</defs>
	<clipPath id="SVGID_2_">
		<use xlink:href="#SVGID_1_"  overflow="visible"/>
	</clipPath>
	<path clip-path="url(#SVGID_2_)" fill="#FC737A" d="M439,260.1c-11.2-37.5-38.7-54.9-83.9-51.6c-62.2,4.6-87-18-108.5-6.5
		c-9,4.8,40.5,29.1,69.5,40c48.6,18.1,31.9,30.2,15.7,30.1c-136.1-0.4-116.9,53.6-72.9,41.4c78.3-21.6,131,23.6,164.3,38.7
		C464.8,371.2,446,283.5,439,260.1z"/>
	<path clip-path="url(#SVGID_2_)" fill="#FC737A" d="M177.5,113.4c0,29.6-56.3,5.6-60.2,22.3c-3.8,16.7,75.2,22.5,96.6,40.8
		s-39.5,74-105.2,68.1S-28.7,175.8,6.1,155.9s62.9,27.3,73.2,4.7s-56.1-41.3-32.2-70.9S177.5,89.7,177.5,113.4z"/>
	<path clip-path="url(#SVGID_2_)" fill="#FC737A" d="M332.3,72.3c-40.4,0-58.8-1.3-57.7,13.1s69.5,6.8,69.5,17.7
		c0,15-43.7,32.5-27,45.1c8.7,6.6,58.5-12.6,82.4-3.4C451.5,164.8,413,72.3,332.3,72.3z"/>
</g>
<g>
	<defs>
		<circle id="SVGID_3_" cx="218.2" cy="224.9" r="190.8"/>
	</defs>
	<clipPath id="SVGID_4_">
		<use xlink:href="#SVGID_3_"  overflow="visible"/>
	</clipPath>
	<g clip-path="url(#SVGID_4_)">
		<path fill="#F4DFC9" d="M281.4,309.2c3.1,0.5,24.9,20.8,37.3,34.4c7.2,7.9-25.3,29.1-36.2,44.5c-11,15.4,2.5,25.4,2.2,35.3
			s2.7,28.6-9.5,24.7c-12.1-3.9-17.9-47.1-5.8-60c12.2-12.9,32.3-33.2,30.6-37.4c-3.5-8.8-29.9-25.4-30.1-29.1
			C269.9,317.8,278.3,308.7,281.4,309.2z"/>
		<path fill="none" stroke="#057CE6" stroke-width="0.5" stroke-miterlimit="10" d="M277.3,307.8c3.1,0.5,24.9,20.8,37.3,34.4
			c7.2,7.9-25.3,29.1-36.2,44.5c-11,15.4,2.5,25.4,2.2,35.3c-0.3,9.9,2.7,28.6-9.5,24.7c-12.1-3.9-17.9-47.1-5.8-60
			c12.2-12.9,32.3-33.2,30.6-37.4c-3.5-8.8-29.9-25.4-30.1-29.1S274.2,307.3,277.3,307.8z"/>
		<path fill="#FFFFFF" d="M257.2,290.8c-4.3-1.3-9.3-2.6-14.1-4.5c6.2,15.6,12.3,39.8-6.1,39.6c-22.2-0.3-36.1-29.2-46.6-45.6
			c-8,3.7-20.6,0.7-28.8,14.3C151,312.1,134.6,335,134.6,335s1.3,6.2,9.8,9.2c10.1,3.5,16.4,0,16.4,0s11.8-20.1,19.3-21.4
			c7.4-1.4,7.6,88.3,15.1,95.1c7.5,6.8,56.3,18.8,78.3-2.5c8.9-8.6-19.3-51-9.7-64c9.6-13-8.6-23.1-7-35.5
			c0.5-4.2,11.2,11.8,25.1,24.9c2.9-4.3,7.7-16.9,8.7-26.1C280.4,304.8,268.2,294.1,257.2,290.8z"/>
		<path fill="#F4DFC9" d="M242.1,327c18.4,0.2,12.2-24.1,6.1-39.6c-13.4-5.4-25.4-15.4-17.5-41.4c9.4-30.9-21.1,0-21.1,0
			s-3.6,22.3-9.9,31.9c-1.1,1.7-2.6,2.8-4.3,3.6C206,297.8,219.9,326.7,242.1,327z"/>
		<path fill="none" stroke="#057CE6" stroke-width="0.5" stroke-miterlimit="10" d="M236.6,327c18.4,0.2,12.2-24.1,6.1-39.6
			c-13.4-5.4-25.4-15.4-17.5-41.4c9.4-30.9-21.1,0-21.1,0s-3.6,22.3-9.9,31.9c-1.1,1.7-2.6,2.8-4.3,3.6
			C200.5,297.8,214.4,326.7,236.6,327z"/>
		<path fill="none" stroke="#057CE6" stroke-width="0.5" stroke-miterlimit="10" d="M241.1,134.3c37.3,2.6,44.8,24.4,44.8,46.3
			s-10.1,64.3,7,54.5c12-6.9,5.2,15.4-10.2,15.9c-42.3,1.4-8.6-91.6-24.5-93.5C242.5,155.7,241.1,134.3,241.1,134.3z"/>
		<path fill="#024685" d="M244.8,138.1c30.9,0,41.1,23.3,41.1,45.2s-10.1,64.3,7,54.5c12-6.9,5.2,15.4-10.2,15.9
			c-42.3,1.4-8.6-91.6-24.5-93.5S244.8,138.1,244.8,138.1z"/>
		<path fill="#F4DFC9" d="M272.8,190.2c-4.1,23.8-0.6,32.8-3.6,43.8c-4.4,15.9-25.2,19.6-39.9,17.8c-26.9-3.4-43.2-15.4-49.4-27.8
			c-6.2-12.4-26-87.1,20.1-85.8C246.1,139.4,277.4,163.8,272.8,190.2z"/>
		<path fill="none" stroke="#024685" stroke-linecap="round" stroke-miterlimit="10" d="M258.2,229.6c-2.6,1.3-26.4,0.5-33.3-4.9"/>
		
			<ellipse transform="matrix(0.127 -0.9919 0.9919 0.127 28.9883 441.3286)" fill="#024685" cx="265.2" cy="204.2" rx="5.7" ry="4.4"/>
		<path fill="#FC737A" d="M254.6,205.8c6,0.3,3.7,7.6,0,7.5C245.3,213.1,248.6,205.5,254.6,205.8z"/>
		<path fill="#FC737A" d="M225.6,212.5c5.8,0-3.2-7.2-12.3-6.2c-6.6,0.8-13,2.9-12.2,6C202.1,216.3,213.6,212.4,225.6,212.5z"/>
		<path fill="#FC737A" d="M265.8,215.5c-2.4-1-4.5-0.3-4-2.1c0.5-2,9.7-1.2,9.4,2.4C271,218.5,268,216.4,265.8,215.5z"/>
		<path fill="#F9D5C5" d="M254.8,207.4c-1.5,1.1,1.3,3.5,2.6,2.2C258.1,208.8,256.9,205.8,254.8,207.4z"/>
		<g>
			
				<ellipse transform="matrix(0.127 -0.9919 0.9919 0.127 -5.7929 383.2504)" fill="#024685" cx="214.8" cy="194.9" rx="6.9" ry="5.3"/>
			<path fill="#C6BFF4" d="M215.9,190.2c-3,0,0,4.7,1.5,3.8C219,193,218.2,190.2,215.9,190.2z"/>
			<path fill="#043B63" d="M210.9,192.6c2.5-2.4,1.9,5.4,4.4,5.7c2.7,0.3,2.7-1.9,3.8-2.2c1.1-0.3-0.4,5.9-5,5.1
				C209.2,200.3,210.4,193.1,210.9,192.6z"/>
		</g>
		<path fill="#C6BFF4" d="M266.7,200.3c-1.9,0,0,4.7,1,3.8S268.3,200.3,266.7,200.3z"/>
		<path fill="#043B63" d="M263,202.2c1,0.1,0.3,2.7,2.5,4c1.3,0.7,2.2-0.7,2.8-0.8c1.6-0.2-0.7,4.1-3.9,3.7
			C260.6,208.5,261.2,202,263,202.2z"/>
		<path fill="#FC737A" d="M230.5,232.6c0.4-1.2,2.2,0.1,5.9,1c2.8,0.7,7.6-0.5,8.5,0.2c2,1.7-3.8,4-8,3.9
			C232.8,237.7,229.8,234.7,230.5,232.6z"/>
		<path fill="#057CE6" d="M252,139.2c5.6-1.1,34.1,6.3,33.8,44.1c-0.2,21.1-8.3,55.3,2.5,55.9c3.7,0.2,5.7-3,9-2.7
			c3.3,0.3-5.7,7.6-9.4,8.7c-9.8,2.7-10.2-13.1-5.6-56.6C287,145.1,248.8,139.9,252,139.2z"/>
		<path fill="#024685" d="M260.3,176.3c1.8-2.8,9.7-0.1,9.8,4.3c0.1,3.5-1.3-0.9-5.2-1.1C261.7,179.3,258.3,179.5,260.3,176.3z"/>
		<path fill="none" stroke="#057CE6" stroke-width="0.5" stroke-miterlimit="10" d="M271,189.1c-4.1,23.8-0.6,32.8-3.6,43.8
			c-4.4,15.9-25.2,19.6-39.9,17.8c-26.9-3.4-43.2-15.4-49.4-27.8s-26-87.1,20.1-85.8S275.6,162.7,271,189.1z"/>
		<path fill="#024685" d="M211,127.3c-35.1,0-66,25.1-71.8,64.1c-4,27.5,2,45.6,11.8,56.2c12.3,13.2,45.7,18.5,58.1,10
			c15.8-10.7-23.1-13.2-23.1-43.9s69.1-24.3,74-52.2C263.1,143.9,238.4,127.3,211,127.3z"/>
		<path fill="#057CE6" d="M160,154.5c3.1-0.4,3.3,14,5.5,15.1s10.9-3.3,14.4-1.6c3.5,1.6-0.8,12.4,1.7,14.6s7-3.6,10.8-3.4
			c4.8,0.3-7.6,4.9-14.7,15.8c-6.8,10.5-2.3,22.2-7,18.6c-4.7-3.6-4.4-15.5-8.6-15.9c-4.1-0.4-6,2.6-9.1,2.1c-3-0.5,2-25.5-3.5-28.3
			C146.4,170,154.3,155.3,160,154.5z"/>
		<path fill="#057CE6" d="M210.1,253.7c0,0-34-16.3-34-40.1c0-31.2,48.4-36.2,59-53c7.1-11.1-3.7-26.2-3.7-26.2
			c8.7-1.4,28.6,15.1,24.7,28.1c-4.3,14.3-27.9,17.8-47.7,24.7c-30.2,10.5-28.4,28.9-21.1,42.5C194.6,242.8,214.4,251.3,210.1,253.7
			z"/>
		<path fill="none" stroke="#057CE6" stroke-width="0.5" stroke-miterlimit="10" d="M209,124.1c-35.1,0-66,25.1-71.8,64.1
			c-4,27.5,2,45.6,11.8,56.2c12.3,13.2,45.7,18.5,58.1,10c15.8-10.7-23.1-13.2-23.1-43.9s69.1-24.3,74-52.2
			C261.2,140.6,236.5,124.1,209,124.1z"/>
		<g>
			<g>
				<path fill="#FFFFFF" d="M385.1,374.8c1.9,0,1.9-3,0-3C383.2,371.8,383.2,374.8,385.1,374.8L385.1,374.8z"/>
			</g>
		</g>
		<path fill="#F4DFC9" d="M137.5,335.3c3.7-4.6,17.3,2.7,19.1,8.1c1.8,5.5-21.9,26.9-21.9,38.8c0,11.9,33.9,26.8,43.8,41.5
			c5.9,8.9,1.4,16,0,27.4c-1.1,9.4-16.4,29.2-23.7,21.9c-7.3-7.3,17.3-38.2,15.5-44.6S114.9,400,116,387.3
			C117.7,368.2,129.1,346,137.5,335.3z"/>
		<path fill="none" stroke="#057CE6" stroke-width="0.5" stroke-miterlimit="10" d="M132.2,335.9c3.7-4.6,17.3,2.7,19.1,8.1
			s-21.9,26.9-21.9,38.8c0,11.9,33.9,26.8,43.8,41.5c5.9,8.9,1.4,16,0,27.4c-1.1,9.4-16.4,29.2-23.7,21.9
			c-7.3-7.3,17.3-38.2,15.5-44.6c-1.8-6.4-55.4-28.4-54.3-41.1C112.3,368.8,123.7,346.6,132.2,335.9z"/>
	</g>
</g>
</svg>
