<svg id="Layer_1" data-name="Layer 1" xmlns="http://www.w3.org/2000/svg" viewBox="0 0 217 217"><defs><style>.cls-1,.cls-11{fill:#fff;}.cls-1{stroke:#fc737a;}.cls-1,.cls-3,.cls-5{stroke-miterlimit:10;}.cls-2{fill:#f4dfc9;}.cls-3,.cls-5{fill:none;}.cls-3{stroke:#057ce6;stroke-width:0.5px;}.cls-4{fill:#024685;}.cls-5{stroke:#024685;stroke-linecap:round;}.cls-6{fill:#fc737a;}.cls-7{fill:#f9d5c5;}.cls-8{fill:#c6bff4;}.cls-9{fill:#043b63;}.cls-10{fill:#057ce6;}</style></defs><title>Artboard 1</title><circle class="cls-1" cx="108.68" cy="108.45" r="107"/><path class="cls-2" d="M126.12,192.11c13.43.16,9-17.58,4.46-29-9.81-3.93-18.56-11.23-12.76-30.26,6.87-22.57-15.43,0-15.43,0s-2.64,16.32-7.24,23.32A7.23,7.23,0,0,1,92,158.8C99.73,170.75,109.89,191.92,126.12,192.11Z"/><path class="cls-3" d="M122.07,192.11c13.43.16,9-17.58,4.46-29-9.81-3.93-18.56-11.23-12.76-30.26,6.87-22.57-15.43,0-15.43,0s-2.64,16.32-7.24,23.32A7.23,7.23,0,0,1,88,158.8C95.68,170.75,105.85,191.92,122.07,192.11Z"/><path class="cls-3" d="M125.36,51.29c27.27,1.93,32.72,17.81,32.72,33.82s-7.4,47,5.15,39.81c8.78-5,3.79,11.26-7.43,11.64-30.9,1.06-6.32-67-17.88-68.31S125.36,51.29,125.36,51.29Z"/><path class="cls-4" d="M128.07,54.08c22.61,0,30,17,30,33s-7.4,47,5.15,39.81c8.78-5,3.79,11.26-7.43,11.64-30.9,1.06-6.32-67-17.88-68.31S128.07,54.08,128.07,54.08Z"/><path class="cls-2" d="M148.53,92.15c-3,17.42-.43,24-2.63,32-3.21,11.65-18.43,14.36-29.17,13C97,134.65,85.15,125.92,80.6,116.82s-19-63.64,14.72-62.73S151.89,72.86,148.53,92.15Z"/><path class="cls-5" d="M137.88,121c-1.87.93-19.27.4-24.35-3.61"/><ellipse class="cls-4" cx="142.98" cy="102.36" rx="4.19" ry="3.22" transform="matrix(0.13, -0.99, 0.99, 0.13, 23.29, 231.19)"/><path class="cls-6" d="M135.23,103.52c4.38.23,2.71,5.57,0,5.5C128.46,108.85,130.84,103.29,135.23,103.52Z"/><path class="cls-6" d="M114,108.4c4.21,0-2.34-5.26-9-4.5-4.85.56-9.48,2.16-8.91,4.42C96.87,111.24,105.25,108.35,114,108.4Z"/><path class="cls-6" d="M143.38,110.62c-1.77-.7-3.26-.19-2.91-1.52.39-1.48,7.06-.85,6.9,1.75C147.24,112.8,145,111.27,143.38,110.62Z"/><path class="cls-7" d="M135.38,104.71c-1.07.83.93,2.54,1.88,1.61C137.82,105.76,136.93,103.51,135.38,104.71Z"/><ellipse class="cls-4" cx="106.16" cy="95.58" rx="5.06" ry="3.88" transform="translate(-2.13 188.74) rotate(-82.7)"/><path class="cls-8" d="M106.93,92.15c-2.17,0,0,3.45,1.13,2.75S108.63,92.15,106.93,92.15Z"/><path class="cls-9" d="M103.26,93.89c1.81-1.73,1.4,4,3.21,4.16,2,.22,2-1.37,2.77-1.62s-.3,4.31-3.69,3.72C102,99.52,102.9,94.23,103.26,93.89Z"/><path class="cls-8" d="M144.1,99.52c-1.41,0,0,3.45.73,2.75S145.21,99.52,144.1,99.52Z"/><path class="cls-9" d="M141.35,100.94c.75.1.22,2,1.86,2.89,1,.53,1.63-.54,2-.59,1.14-.13-.51,3-2.82,2.68C139.63,105.52,140.08,100.77,141.35,100.94Z"/><path class="cls-6" d="M117.63,123.13c.32-.88,1.59.07,4.3.76,2.07.53,5.54-.37,6.18.17,1.48,1.24-2.77,2.91-5.82,2.86S117.07,124.69,117.63,123.13Z"/><path class="cls-10" d="M133.36,54.88c4.07-.8,25,4.63,24.72,32.23-.13,15.43-6,40.43,1.84,40.86,2.73.15,4.19-2.18,6.6-1.95s-4.17,5.59-6.9,6.35c-7.15,2-7.43-9.6-4.08-41.38S131,55.35,133.36,54.88Z"/><path class="cls-4" d="M139.4,81.94c1.28-2,7.08-.07,7.17,3.16.07,2.54-1-.67-3.77-.8C140.4,84.19,137.92,84.3,139.4,81.94Z"/><path class="cls-3" d="M147.19,91.3c-3,17.42-.43,24-2.63,32-3.21,11.65-18.43,14.36-29.17,13C95.7,133.8,83.81,125.06,79.26,116S60.26,52.33,94,53.24,150.55,72,147.19,91.3Z"/><path class="cls-4" d="M103.35,46.17C77.65,46.17,55.09,64.52,50.89,93c-3,20.1,1.47,33.36,8.62,41.07,9,9.68,33.39,13.49,42.49,7.33,11.57-7.83-16.86-9.63-16.86-32.11s50.51-17.8,54.06-38.14C141.46,58.27,123.42,46.17,103.35,46.17Z"/><path class="cls-10" d="M66.11,66.07c2.23-.3,2.41,10.27,4,11.07s8-2.41,10.51-1.2S80.06,85,81.87,86.63,87,84,89.8,84.17c3.51.2-5.56,3.57-10.74,11.55-5,7.68-1.67,16.26-5.08,13.6S70.73,98,67.72,97.72s-4.42,1.91-6.62,1.51,1.46-18.66-2.58-20.68C56.11,77.34,61.9,66.64,66.11,66.07Z"/><path class="cls-10" d="M102.71,138.56s-24.83-11.88-24.83-29.34c0-22.81,35.41-26.47,43.16-38.71,5.16-8.15-2.7-19.16-2.7-19.16,6.33-1,20.93,11,18,20.5-3.16,10.44-20.4,13-34.88,18.06-22,7.7-20.77,21.11-15.39,31C91.34,130.6,105.83,136.79,102.71,138.56Z"/><path class="cls-3" d="M101.93,43.8c-25.69,0-48.26,18.36-52.45,46.87-3,20.1,1.47,33.36,8.62,41.07,9,9.68,33.39,13.49,42.49,7.33,11.57-7.83-16.86-9.63-16.86-32.11s50.51-17.8,54.06-38.14C140,55.9,122,43.8,101.93,43.8Z"/><path class="cls-11" d="M198.26,199a1.5,1.5,0,0,0,0-3,1.5,1.5,0,0,0,0,3Z"/></svg>